<svg width="50" height="47" viewBox="0 0 50 47" fill="none" xmlns="http://www.w3.org/2000/svg">
<g clip-path="url(#clip0_15_529)">
<path d="M9.47305 5.10681L22.5048 14.0069L0.669344 28.9196C0.23243 27.1825 7.62939e-06 25.372 7.62939e-06 23.5113C7.62939e-06 16.0639 3.70528 9.41539 9.47305 5.10681Z" fill="#1F41BB"/>
<path d="M12.0133 3.43798C15.8006 1.26487 20.2475 0.0114746 25 0.0114746C30.1076 0.0114746 34.8615 1.45985 38.8237 3.94102L33.8437 18.3473L12.0133 3.43798Z" fill="#1F41BB"/>
<path d="M41.2948 5.70349C46.6216 10.0164 50 16.3997 50 23.5112C50 25.6964 49.6799 27.8124 49.0835 29.8212H32.9576L41.2948 5.70349Z" fill="#1F41BB"/>
<path d="M48.0648 32.5752C44.4123 40.7569 35.9715 46.5993 26.0565 46.9888L21.0743 32.5752H48.0648Z" fill="#1F41BB"/>
<path d="M22.9565 46.9323C13.1276 46.1813 4.88906 40.0632 1.57022 31.7082L14.6148 22.7993L22.9565 46.9323Z" fill="#1F41BB"/>
</g>
<defs>
<clipPath id="clip0_15_529">
<rect width="50" height="47" fill="white" transform="matrix(-1 0 0 1 50 0)"/>
</clipPath>
</defs>
</svg>
