<svg width="45" height="49" viewBox="0 0 45 49" fill="none" xmlns="http://www.w3.org/2000/svg">
<path d="M30.6844 45.9375H14.3156C12.4645 46.0124 10.661 45.2888 9.29709 43.9241C7.93313 42.5593 7.11887 40.6636 7.03124 38.6488V29.0938C7.03124 28.6877 7.17939 28.2982 7.44312 28.011C7.70684 27.7239 8.06453 27.5625 8.43749 27.5625C8.81045 27.5625 9.16813 27.7239 9.43185 28.011C9.69558 28.2982 9.84374 28.6877 9.84374 29.0938V38.6488C9.93017 39.8515 10.4476 40.9689 11.2844 41.7597C12.1211 42.5505 13.2099 42.9511 14.3156 42.875H30.6844C31.7901 42.9511 32.8789 42.5505 33.7156 41.7597C34.5523 40.9689 35.0698 39.8515 35.1562 38.6488V29.0938C35.1562 28.6877 35.3044 28.2982 35.5681 28.011C35.8318 27.7239 36.1895 27.5625 36.5625 27.5625C36.9354 27.5625 37.2931 27.7239 37.5569 28.011C37.8206 28.2982 37.9687 28.6877 37.9687 29.0938V38.6488C37.8811 40.6636 37.0668 42.5593 35.7029 43.9241C34.3389 45.2888 32.5355 46.0124 30.6844 45.9375ZM41.7797 25.5872C41.9115 25.4449 42.0161 25.2755 42.0875 25.0889C42.1589 24.9023 42.1956 24.7022 42.1956 24.5C42.1956 24.2979 42.1589 24.0977 42.0875 23.9111C42.0161 23.7245 41.9115 23.5552 41.7797 23.4128L23.4984 3.50659C23.3677 3.36307 23.2122 3.24915 23.0408 3.17141C22.8694 3.09367 22.6856 3.05365 22.5 3.05365C22.3143 3.05365 22.1305 3.09367 21.9592 3.17141C21.7878 3.24915 21.6323 3.36307 21.5015 3.50659L3.2203 23.4128C2.9555 23.7012 2.80673 24.0923 2.80673 24.5C2.80673 24.9078 2.9555 25.2989 3.2203 25.5872C3.4851 25.8756 3.84425 26.0375 4.21874 26.0375C4.59322 26.0375 4.95237 25.8756 5.21717 25.5872L22.5 6.75284L39.7828 25.5872C39.9135 25.7307 40.0691 25.8447 40.2404 25.9224C40.4118 26.0001 40.5956 26.0402 40.7812 26.0402C40.9669 26.0402 41.1507 26.0001 41.322 25.9224C41.4934 25.8447 41.6489 25.7307 41.7797 25.5872Z" fill="white"/>
</svg>
